2 Days in the Valley (1996)

DVDRip rus MVO + AVO Gavrilov + Original (eng) singly + sub (eng) singly

 
http://www.imdb.com/title/tt0115438/

Genres: Crime | Thriller


48 hours of intersecting lives and crimes in Los Angeles.

Director: John Herzfeld

Writer: John Herzfeld

Stars: 	Charlize Theron, Teri Hatcher, Jeff Daniels and Danny Aiello 


File: Dva.dnya.v.doline.1996.DVDRip.rus.MVO.AVO.Gavrilov.avi
Filesize: 1492.97 Mb ( 1 565 491 200 bytes )
Play length: 01:40:32.879 (150822 frames)
Subtitles: Not Present
Video: 720x304 (2.37:1), 25 fps, XviD build 64 ~1676 kbps avg, 0.31 bit/pixel
Audio #1: 48 kHz, AC3 Dolby Digital, 2/0 (L,R) ch, ~192.00 kbps avg rus MVO
Audio #2: 48 kHz, AC3 Dolby Digital, 2/0 (L,R) ch, ~192.00 kbps avg rus AVO Gavrilov
Audio #3: 48 kHz, AC3 Dolby Digital, 3/2 (L,C,R,l,r) + LFE ch, ~448.00 kbps avg Original (eng) singly


General
Complete name                    : Dva.dnya.v.doline.1996.DVDRip.rus.MVO.AVO.Gavrilov.avi
Format                           : AVI
Format/Info                      : Audio Video Interleave
File size                        : 1.46 GiB
Duration                         : 1h 40mn
Overall bit rate                 : 2 076 Kbps
Movie name                       : 2 Days in the Valley
Director                         : John Herzfeld
Genre                            : Thriller
Writing application              : VirtualDubMod 1.5.10.2 (build 2540/release)
Original source form/Name        : Movie
Copyright                        : http://upload.by
Comment                          : by demon1

Video
ID                               : 0
Format                           : MPEG-4 Visual
Format profile                   : Advanced Simple@L5
Format settings, BVOP            : 1
Format settings, QPel            : No
Format settings, GMC             : No warppoints
Format settings, Matrix          : Custom
Codec ID                         : XVID
Codec ID/Hint                    : XviD
Duration                         : 1h 40mn
Bit rate                         : 1 677 Kbps
Width                            : 720 pixels
Height                           : 304 pixels
Display aspect ratio             : 2.35:1
Frame rate                       : 25.000 fps
Color space                      : YUV
Chroma subsampling               : 4:2:0
Bit depth                        : 8 bits
Scan type                        : Progressive
Compression mode                 : Lossy
Bits/(Pixel*Frame)               : 0.307
Stream size                      : 1.18 GiB (81%)
Writing library                  : XviD 64

Audio #1
ID                               : 1
Format                           : AC-3
Format/Info                      : Audio Coding 3
Mode extension                   : CM (complete main)
Codec ID                         : 2000
Duration                         : 1h 40mn
Bit rate mode                    : Constant
Bit rate                         : 192 Kbps
Channel(s)                       : 2 channels
Channel positions                : Front: L R
Sampling rate                    : 48.0 KHz
Bit depth                        : 16 bits
Compression mode                 : Lossy
Stream size                      : 138 MiB (9%)
Alignment                        : Split accross interleaves
Interleave, duration             : 40 ms (1.00 video frame)
Interleave, preload duration     : 500 ms

Audio #2
ID                               : 2
Format                           : AC-3
Format/Info                      : Audio Coding 3
Mode extension                   : CM (complete main)
Codec ID                         : 2000
Duration                         : 1h 40mn
Bit rate mode                    : Constant
Bit rate                         : 192 Kbps
Channel(s)                       : 2 channels
Channel positions                : Front: L R
Sampling rate                    : 48.0 KHz
Bit depth                        : 16 bits
Compression mode                 : Lossy
Stream size                      : 138 MiB (9%)
Alignment                        : Split accross interleaves
Interleave, duration             : 40 ms (1.00 video frame)
Interleave, preload duration     : 500 ms

 
http://bayimg.com/gaMdIaADh
 
http://bayimg.com/gAMDJAADh
 
http://bayimg.com/GAmdkaAdH
 
http://bayimg.com/gAMdNaAdh
 
http://bayimg.com/gAmDmAAdh